<?xml version="1.0" encoding="utf-8"?>
<!-- Generator: Adobe Illustrator 23.0.5, SVG Export Plug-In . SVG Version: 6.00 Build 0)  -->
<svg version="1.1" id="Layer_1" xmlns="http://www.w3.org/2000/svg" xmlns:xlink="http://www.w3.org/1999/xlink" x="0px" y="0px"
	 viewBox="0 0 1920 1080" style="enable-background:new 0 0 1920 1080;" xml:space="preserve">
<style type="text/css">
	.st0{opacity:0.5;}
	.st1{fill:url(#SVGID_1_);}
	.st2{opacity:0.5;fill:url(#SVGID_2_);enable-background:new    ;}
</style>
<g>
	<g class="st0">
		<linearGradient id="SVGID_1_" gradientUnits="userSpaceOnUse" x1="-118.5532" y1="868.1383" x2="596.4468" y2="868.1383">
			<stop  offset="0" style="stop-color:#FFFFFF"/>
			<stop  offset="1" style="stop-color:#3794fc"/>
		</linearGradient>
		<path class="st1" d="M238.9,1225.6L238.9,1225.6c-197.4,0-357.5-160.1-357.5-357.5l0,0c0-197.4,160.1-357.5,357.5-357.5l0,0
			c197.4,0,357.5,160.1,357.5,357.5l0,0C596.4,1065.5,436.3,1225.6,238.9,1225.6z"/>
	</g>
</g>
<g id="Layer_3">
	<linearGradient id="SVGID_2_" gradientUnits="userSpaceOnUse" x1="-36.766" y1="540" x2="303.234" y2="540">
		<stop  offset="0" style="stop-color:#FFFFFF"/>
		<stop  offset="1" style="stop-color:#3794fc"/>
	</linearGradient>
	<path class="st2" d="M133.2,710L133.2,710c-93.9,0-170-76.1-170-170l0,0c0-93.9,76.1-170,170-170l0,0c93.9,0,170,76.1,170,170l0,0
		C303.2,633.9,227.1,710,133.2,710z"/>
</g>
</svg>
