<?xml version="1.0" encoding="utf-8"?>
<!-- Generator: Adobe Illustrator 23.0.5, SVG Export Plug-In . SVG Version: 6.00 Build 0)  -->
<svg version="1.1" id="Layer_1" xmlns="http://www.w3.org/2000/svg" xmlns:xlink="http://www.w3.org/1999/xlink" x="0px" y="0px"
	 viewBox="0 0 1920 1080" style="enable-background:new 0 0 1920 1080;" xml:space="preserve">
<style type="text/css">
	.st0{fill:url(#SVGID_1_);}
	.st1{opacity:0.5;}
	.st2{fill:#FFFFFF;}
	.st3{opacity:0.5;fill:#FFFFFF;enable-background:new    ;}
</style>
<g>
	<g>
		<linearGradient id="SVGID_1_" gradientUnits="userSpaceOnUse" x1="-64.1659" y1="534.5121" x2="2164.4851" y2="534.5121">
			<stop  offset="0" style="stop-color:#FFFFFF"/>
			<stop  offset="1" style="stop-color:#3794fc"/>
		</linearGradient>
		<rect x="-64.2" y="-61.4" class="st0" width="2228.7" height="1191.7"/>
		<path d="M2164-60.7V1130H-63.7V-60.7H2164 M2165-61.9H-64.7V1131H2165V-61.9L2165-61.9z"/>
	</g>
</g>
<g>
	<g class="st1">
		<path class="st2" d="M1897.5,715L1897.5,715c-197.4,0-357.5-160.1-357.5-357.5l0,0C1540,160.1,1700.1,0,1897.5,0l0,0
			C2094.9,0,2255,160.1,2255,357.5l0,0C2255,554.9,2094.9,715,1897.5,715z"/>
	</g>
</g>
<g id="Layer_3">
	<path class="st3" d="M1710,254L1710,254c-93.9,0-170-76.1-170-170l0,0c0-93.9,76.1-170,170-170l0,0c93.9,0,170,76.1,170,170l0,0
		C1880,177.9,1803.9,254,1710,254z"/>
</g>
</svg>
